<?xml version="1.0" encoding="UTF-8"?>
<svg width="250px" height="250px" viewBox="0 0 250 250" version="1.1" xmlns="http://www.w3.org/2000/svg" xmlns:xlink="http://www.w3.org/1999/xlink">
    <title>V1</title>
    <g id="V1" stroke="none" stroke-width="1" fill="none" fill-rule="evenodd">
        <rect fill="#FFFFFF" x="0" y="0" width="250" height="250"></rect>
        <g id="logo" transform="translate(15.000000, 19.000000)">
            <g id="green_part">
                <g id="blue_part" transform="translate(0.000000, 62.000000)">
                    <line x1="107.5" y1="28.5" x2="30.5" y2="20.5" id="Edge" stroke="#6580DE" stroke-width="5" stroke-linecap="square"></line>
                    <path d="M63.3316549,18.2489301 L70.8046973,29.9698009 C71.6954351,31.3668521 71.284987,33.2214716 69.8879358,34.1122094 C69.4061021,34.419419 68.8465503,34.5826244 68.2751123,34.5826244 L53.9677666,34.5826244 C52.3109124,34.5826244 50.9677666,33.2394787 50.9677666,31.5826244 C50.9677666,31.0516466 51.1086931,30.5301815 51.3761536,30.0714851 L58.2104569,18.3506143 C59.0450361,16.919306 60.8819009,16.4355614 62.3132092,17.2701406 C62.7257568,17.5106923 63.0749165,17.8462565 63.3316549,18.2489301 Z" id="Arrow" fill="#6580DE" transform="translate(61.245761, 24.342368) rotate(-266.000000) translate(-61.245761, -24.342368) "></path>
                    <circle id="Node" fill="#4063D8" cx="20" cy="20" r="20"></circle>
                </g>
                <line x1="107.5" y1="90.5" x2="131.5" y2="18.5" id="Edge" stroke="#389726" stroke-width="5" stroke-linecap="square"></line>
                <circle id="Node" fill="#389726" cx="132.5" cy="17.5" r="17.5"></circle>
                <path d="M124.150785,42.5575823 L130.795428,51.6893941 C131.770262,53.0291198 131.474459,54.905441 130.134733,55.8802749 C129.621864,56.2534577 129.003912,56.454487 128.36964,56.454487 L115.1299,56.454487 C113.473046,56.454487 112.1299,55.1113412 112.1299,53.454487 C112.1299,52.8238609 112.328628,52.2092711 112.69785,51.698033 L119.292946,42.5662212 C120.263009,41.2230368 122.138266,40.9205619 123.481451,41.8906247 C123.738393,42.0761911 123.964306,42.3013019 124.150785,42.5575823 Z" id="Arrow" fill="#389726" transform="translate(121.762686, 47.832894) rotate(-161.000000) translate(-121.762686, -47.832894) "></path>
            </g>
            <g id="purple_part" transform="translate(106.961380, 90.324532)">
                <circle id="circle" fill="#9558B2" cx="59.5386203" cy="106.175468" r="17.5"></circle>
                <path d="M31.410642,49.3713216 L39.0724562,61.7273097 C39.6545581,62.6660488 39.3654466,63.8989341 38.4267075,64.481036 C38.1101877,64.6773065 37.7451523,64.7812985 37.3727187,64.7812985 L25.5376945,64.7812985 C24.433125,64.7812985 23.5376945,63.885868 23.5376945,62.7812985 C23.5376945,62.4124155 23.6397145,62.0507189 23.8324731,61.7362053 L31.410642,49.3713216 L31.410642,49.3713216 Z" id="Arrow" fill="#9558B2" transform="translate(31.466201, 57.076310) rotate(-388.000000) translate(-31.466201, -57.076310) "></path>
                <line x1="0.538620332" y1="0.175468002" x2="60.5386203" y2="110.175468" id="Edge" stroke="#9558B2" stroke-width="3" stroke-linecap="square"></line>
            </g>
            <circle id="center_Red_Node" fill="#CB3C33" cx="107" cy="90" r="25"></circle>
        </g>
    </g>
</svg>