<?xml version="1.0" encoding="UTF-8"?>
<svg width="250px" height="250px" viewBox="0 0 250 250" version="1.1" xmlns="http://www.w3.org/2000/svg" xmlns:xlink="http://www.w3.org/1999/xlink">
    <title>V2</title>
    <g id="V2" stroke="none" stroke-width="1" fill="none" fill-rule="evenodd">
        <rect fill="#FFFFFF" x="0" y="0" width="250" height="250"></rect>
        <g id="logo" transform="translate(15.000000, 19.000000)">
            <g id="green_part">
                <g id="blue_part" transform="translate(0.000000, 62.000000)">
                    <line x1="107.5" y1="28.5" x2="30.5" y2="20.5" id="Edge" stroke="#6580DE" stroke-width="3" stroke-linecap="square"></line>
                    <path d="M60.4579076,20.1956603 L64.7676742,26.887791 C65.664762,28.2807732 65.2627601,30.1372418 63.8697778,31.0343295 C63.3854418,31.3462444 62.8215403,31.512112 62.2454568,31.512112 L53.9942898,31.512112 C52.3374355,31.512112 50.9942898,30.1689663 50.9942898,28.512112 C50.9942898,27.9766855 51.1375861,27.4510154 51.4093067,26.9896592 L55.350707,20.2975285 C56.1915345,18.8698818 58.0304962,18.3941708 59.4581429,19.2349983 C59.8618391,19.4727594 60.2042378,19.8017661 60.4579076,20.1956603 Z" id="Arrow" fill="#6580DE" transform="translate(58.245761, 23.807112) rotate(-266.000000) translate(-58.245761, -23.807112) "></path>
                    <circle id="Node" fill="#4063D8" cx="20" cy="20" r="20"></circle>
                </g>
                <line x1="107.5" y1="90.5" x2="131.5" y2="18.5" id="Edge" stroke="#389726" stroke-width="3" stroke-linecap="square"></line>
                <circle id="Node" fill="#389726" cx="132.5" cy="17.5" r="17.5"></circle>
                <path d="M124.28778,44.3494531 L128.429502,51.0427127 C129.301332,52.4516406 128.865928,54.3005605 127.457,55.1723908 C126.982759,55.4658468 126.436105,55.6213011 125.878412,55.6213011 L117.625853,55.6213011 C115.968999,55.6213011 114.625853,54.2781554 114.625853,52.6213011 C114.625853,52.067016 114.779415,51.5235672 115.0695,51.0512509 L119.180337,44.3579913 C120.047452,42.9461564 121.894906,42.5045734 123.306741,43.3716882 C123.705546,43.6166243 124.041512,43.9514696 124.28778,44.3494531 Z" id="Arrow" fill="#389726" transform="translate(121.762686, 47.916301) rotate(-161.000000) translate(-121.762686, -47.916301) "></path>
            </g>
            <g id="purple_part" transform="translate(106.961380, 90.324532)">
                <circle id="circle" fill="#9558B2" cx="59.5386203" cy="106.175468" r="17.5"></circle>
                <path d="M31.410642,49.3713216 L39.0724562,61.7273097 C39.6545581,62.6660488 39.3654466,63.8989341 38.4267075,64.481036 C38.1101877,64.6773065 37.7451523,64.7812985 37.3727187,64.7812985 L25.5376945,64.7812985 C24.433125,64.7812985 23.5376945,63.885868 23.5376945,62.7812985 C23.5376945,62.4124155 23.6397145,62.0507189 23.8324731,61.7362053 L31.410642,49.3713216 L31.410642,49.3713216 Z" id="Arrow" fill="#9558B2" transform="translate(31.466201, 57.076310) rotate(-388.000000) translate(-31.466201, -57.076310) "></path>
                <line x1="0.538620332" y1="0.175468002" x2="60.5386203" y2="110.175468" id="Edge" stroke="#9558B2" stroke-width="3" stroke-linecap="square"></line>
            </g>
            <circle id="center_Red_Node" fill="#CB3C33" cx="107" cy="90" r="25"></circle>
        </g>
    </g>
</svg>