<?xml version="1.0" encoding="UTF-8"?>
<svg width="250px" height="250px" viewBox="0 0 250 250" version="1.1" xmlns="http://www.w3.org/2000/svg" xmlns:xlink="http://www.w3.org/1999/xlink">
    <title>V4</title>
    <g id="V4" stroke="none" stroke-width="1" fill="none" fill-rule="evenodd">
        <rect fill="#FFFFFF" x="0" y="0" width="250" height="250"></rect>
        <g id="logo" transform="translate(15.000000, 19.000000)">
            <g id="green_part">
                <g id="blue_part" transform="translate(0.000000, 62.000000)">
                    <line x1="107.5" y1="28.5" x2="30.5" y2="20.5" id="Edge" stroke="#4063D8" stroke-width="2" stroke-linecap="square"></line>
                    <circle id="Node" fill="#4063D8" cx="20" cy="20" r="20"></circle>
                </g>
                <line x1="107.5" y1="90.5" x2="131.5" y2="18.5" id="Edge" stroke="#389726" stroke-width="2" stroke-linecap="square"></line>
                <circle id="Node" fill="#389726" cx="132.5" cy="17.5" r="17.5"></circle>
            </g>
            <g id="purple_part" transform="translate(106.961380, 90.324532)">
                <circle id="circle" fill="#9558B2" cx="59.5386203" cy="106.175468" r="17.5"></circle>
                <line x1="0.538620332" y1="0.175468002" x2="60.5386203" y2="110.175468" id="Edge" stroke="#9558B2" stroke-width="2" stroke-linecap="square"></line>
            </g>
            <circle id="center_Red_Node" fill="#CB3C33" cx="107" cy="90" r="25"></circle>
        </g>
        <polygon id="Rectangle" stroke="#4063D8" stroke-width="2" fill="#4063D8" transform="translate(75.995740, 104.606386) rotate(6.000000) translate(-75.995740, -104.606386) " points="71.9957396 100.606386 79.9957396 104.606386 71.9957396 108.606386 75.9957396 104.606386"></polygon>
        <polygon id="Rectangle" stroke="#389726" stroke-width="2" fill="#389726" transform="translate(135.800326, 69.634317) rotate(109.000000) translate(-135.800326, -69.634317) " points="131.800326 65.6343165 139.800326 69.6343165 131.800326 73.6343165 135.800326 69.6343165"></polygon>
        <polygon id="Rectangle" stroke="#9558B2" stroke-width="2" fill="#9558B2" transform="translate(154.668885, 168.347016) rotate(-119.000000) translate(-154.668885, -168.347016) " points="150.668885 164.347016 158.668885 168.347016 150.668885 172.347016 154.668885 168.347016"></polygon>
    </g>
</svg>